<svg width="120" height="120" viewBox="0 0 120 120" fill="none" xmlns="http://www.w3.org/2000/svg">
  <!-- Central core -->
  <circle cx="60" cy="60" r="36" stroke="#273A7F" stroke-width="3" fill="white"/>

  <!-- Headset -->
  <path d="M41 63V56.4C41 44.6 49.8 35.2 60.4 35.2C71 35.2 79.8 44.6 79.8 56.4V63"
        stroke="#2A85BE" stroke-width="2.8" stroke-linecap="round"/>
  <rect x="34.8" y="60" width="12.4" height="19" rx="5.2"
        stroke="#273A7F" stroke-width="2.5" fill="#0CBB19"/>
  <rect x="72.8" y="60" width="12.4" height="19" rx="5.2"
        stroke="#273A7F" stroke-width="2.5" fill="#0CBB19"/>
  <path d="M84.6 77.2C84.6 83.2 80 87.6 74.4 87.6H65.6"
        stroke="#273A7F" stroke-width="2.5" stroke-linecap="round"/>
  <circle cx="61.6" cy="87.6" r="4.4" fill="#0CBB19"/>

  <!-- Outer nodes -->
  <!-- <circle cx="60" cy="24" r="9.5" stroke="#2A85BE" stroke-width="2.5" fill="white"/>
  <circle cx="28" cy="82" r="9.5" stroke="#2A85BE" stroke-width="2.5" fill="white"/>
  <circle cx="92" cy="82" r="9.5" stroke="#2A85BE" stroke-width="2.5" fill="white"/> -->

  <!-- TOP NODE: Clock -->
  <!-- <circle cx="60" cy="24" r="5.2" stroke="#273A7F" stroke-width="2" fill="white"/>
  <path d="M60 24V21.8M60 24L62.3 25.3"
        stroke="#273A7F" stroke-width="2" stroke-linecap="round"/> -->

  <!-- LEFT NODE: Shield -->
  <!-- <path d="M28 76.8L32.2 78.6V82.4C32.2 85.4 30.2 87.2 28 88.3C25.8 87.2 23.8 85.4 23.8 82.4V78.6L28 76.8Z"
        stroke="#273A7F" stroke-width="2" fill="white" stroke-linejoin="round"/> -->

  <!-- RIGHT NODE: Lightning / fast response -->
  <!-- <path d="M92 76.8L89.7 82.2H92.7L90.7 87.2L95.1 81.6H92.2L94.3 76.8H92Z"
        fill="#0CBB19" stroke="#273A7F" stroke-width="1.6" stroke-linejoin="round"/> -->
</svg>
