<svg width="120" height="120" viewBox="0 0 120 120" fill="none" xmlns="http://www.w3.org/2000/svg">
  <!-- Solid ecosystem ring -->
  <circle cx="60" cy="60" r="36" stroke="#BCBEC0" stroke-width="2.5"/>

  <!-- Outer nodes -->
  <circle cx="60" cy="24" r="9.5" stroke="#2A85BE" stroke-width="2.5" fill="white"/>
  <circle cx="28" cy="82" r="9.5" stroke="#2A85BE" stroke-width="2.5" fill="white"/>
  <circle cx="92" cy="82" r="9.5" stroke="#2A85BE" stroke-width="2.5" fill="white"/>

  <!-- TOP NODE: Clock -->
  <circle cx="60" cy="24" r="5.2" stroke="#273A7F" stroke-width="2" fill="white"/>
  <path d="M60 24V21.8M60 24L62.3 25.3"
        stroke="#273A7F" stroke-width="2" stroke-linecap="round"/>

  <!-- LEFT NODE: Shield -->
  <path d="M28 76.8L32.2 78.6V82.4C32.2 85.4 30.2 87.2 28 88.3C25.8 87.2 23.8 85.4 23.8 82.4V78.6L28 76.8Z"
        stroke="#273A7F" stroke-width="2" fill="white" stroke-linejoin="round"/>

  <!-- RIGHT NODE: Lightning / fast response -->
  <path d="M92 76.8L89.7 82.2H92.7L90.7 87.2L95.1 81.6H92.2L94.3 76.8H92Z"
        fill="#0CBB19" stroke="#273A7F" stroke-width="1.6" stroke-linejoin="round"/>

  <!-- Central core -->
  <circle cx="60" cy="60" r="18" stroke="#273A7F" stroke-width="3" fill="white"/>

  <!-- Headset -->
  <path d="M50.5 61.5V58.2C50.5 52.3 54.9 47.6 60.2 47.6C65.5 47.6 69.9 52.3 69.9 58.2V61.5"
        stroke="#2A85BE" stroke-width="2.8" stroke-linecap="round"/>
  <rect x="47.4" y="60" width="6.2" height="9.5" rx="2.6"
        stroke="#273A7F" stroke-width="2.5" fill="white"/>
  <rect x="66.4" y="60" width="6.2" height="9.5" rx="2.6"
        stroke="#273A7F" stroke-width="2.5" fill="white"/>
  <path d="M72.3 68.6C72.3 71.6 70.0 73.8 67.2 73.8H62.8"
        stroke="#273A7F" stroke-width="2.5" stroke-linecap="round"/>
  <circle cx="60.8" cy="73.8" r="2.2" fill="#0CBB19"/>
</svg>
