<svg width="120" height="120" viewBox="0 0 120 120" fill="none" xmlns="http://www.w3.org/2000/svg">
  <!-- Pie chart -->
  <path d="M60 60L60 24A36 36 0 0 1 91.18 78Z" fill="#0CBB19"/>
  <path d="M60 60L91.18 78A36 36 0 0 1 42 91.18Z" fill="#2A85BE"/>
  <path d="M60 60L42 91.18A36 36 0 0 1 26.17 47.69Z" fill="#273A7F"/>
  <path d="M60 60L26.17 47.69A36 36 0 0 1 60 24Z" fill="#4A4A4A"/>

  <!-- Central core -->
  <circle cx="60" cy="60" r="36" stroke="#273A7F" stroke-width="3" fill="none"/>
  
  <!-- Outer nodes -->
  <!-- <circle cx="60" cy="24" r="9.5" stroke="#2A85BE" stroke-width="2.5" fill="white"/>
  <circle cx="28" cy="82" r="9.5" stroke="#2A85BE" stroke-width="2.5" fill="white"/>
  <circle cx="92" cy="82" r="9.5" stroke="#2A85BE" stroke-width="2.5" fill="white"/> -->

  <!-- TOP NODE: Up arrow -->
  <!-- <path d="M60 28V21"
        stroke="#273A7F" stroke-width="2.5" stroke-linecap="round"/>
  <path d="M56.8 24.2L60 21L63.2 24.2"
        stroke="#273A7F" stroke-width="2.5" stroke-linecap="round" stroke-linejoin="round"/> -->

  <!-- LEFT NODE: Pie slice -->
  <!-- <path d="M28 82V76.8A5.2 5.2 0 0 1 33.2 82H28Z"
        fill="#0CBB19"/>
  <circle cx="28" cy="82" r="5.2" stroke="#273A7F" stroke-width="2"/> -->

  <!-- RIGHT NODE: Filter funnel -->
  <!-- <path d="M88.5 78.5H95.5L92.7 82V85.8L91.3 86.7V82L88.5 78.5Z"
        stroke="#273A7F" stroke-width="2" stroke-linejoin="round" fill="white"/> -->

  <!-- Insight dots -->
 
</svg>
