<svg width="120" height="120" viewBox="0 0 120 120" fill="none" xmlns="http://www.w3.org/2000/svg">

  <!-- Dotted ecosystem ring -->
  <circle cx="60" cy="60" r="36"
          stroke="#BCBEC0"
          stroke-width="2.5"
          stroke-dasharray="4 6"/>

  <!-- Outer node circles -->
  <circle cx="60" cy="24" r="9.5"
          stroke="#2A85BE" stroke-width="2.5" fill="white"/>
  <circle cx="28" cy="82" r="9.5"
          stroke="#2A85BE" stroke-width="2.5" fill="white"/>
  <circle cx="92" cy="82" r="9.5"
          stroke="#2A85BE" stroke-width="2.5" fill="white"/>

  <!-- Central core -->
  <circle cx="60" cy="60" r="18"
          stroke="#273A7F" stroke-width="3" fill="white"/>

  <!-- Lightbulb outline -->
  <path d="M60 44
           C53.5 44 48.5 49 48.5 55
           C48.5 59.5 51.2 62.8 54.2 64.8
           C55.4 65.6 56 66.8 56 68V69
           H64V68
           C64 66.8 64.6 65.6 65.8 64.8
           C68.8 62.8 71.5 59.5 71.5 55
           C71.5 49 66.5 44 60 44Z"
        stroke="#273A7F"
        stroke-width="2.5"
        fill="none"
        stroke-linecap="round"
        stroke-linejoin="round"/>

  <!-- Bulb base -->
  <path d="M56 71H64"
        stroke="#2A85BE"
        stroke-width="2.5"
        stroke-linecap="round"/>
  <path d="M57 74H63"
        stroke="#2A85BE"
        stroke-width="2.5"
        stroke-linecap="round"/>

  <!-- Line chart (top node) -->
  <path d="M55 26L58 23L61 25L64 21"
        stroke="#273A7F"
        stroke-width="2"
        stroke-linecap="round"
        stroke-linejoin="round"/>

  <!-- Pie chart (left node) -->
  <circle cx="28" cy="82" r="4.5"
          stroke="#273A7F"
          stroke-width="2"
          fill="none"/>
  <path d="M28 82L28 77.5"
        stroke="#273A7F"
        stroke-width="2"
        stroke-linecap="round"/>
  <path d="M28 82L32 84"
        stroke="#273A7F"
        stroke-width="2"
        stroke-linecap="round"/>

  <!-- Bar chart (right node) -->
  <path d="M88.5 86V82"
        stroke="#273A7F"
        stroke-width="2"
        stroke-linecap="round"/>
  <path d="M92 86V78"
        stroke="#273A7F"
        stroke-width="2"
        stroke-linecap="round"/>
  <path d="M95.5 86V80"
        stroke="#273A7F"
        stroke-width="2"
        stroke-linecap="round"/>

</svg>
