<svg width="120" height="120"
     viewBox="0 0 120 120"
     xmlns="http://www.w3.org/2000/svg"
     fill="none">

  <!-- Dotted ecosystem ring -->
  <circle cx="60" cy="60" r="36"
          stroke="#BCBEC0"
          stroke-width="2.5"
          stroke-dasharray="4 6"/>

  <!-- Outer node circles -->
  <circle cx="60" cy="24" r="9.5"
          stroke="#2A85BE" stroke-width="2.5" fill="white"/>
  <circle cx="28" cy="82" r="9.5"
          stroke="#2A85BE" stroke-width="2.5" fill="white"/>
  <circle cx="92" cy="82" r="9.5"
          stroke="#2A85BE" stroke-width="2.5" fill="white"/>

  <!-- Central platform core -->
  <circle cx="60" cy="60" r="18"
          stroke="#273A7F" stroke-width="3" fill="white"/>

  <!-- Laptop -->
  <rect x="49" y="54" width="22" height="14" rx="2.5"
        stroke="#273A7F" stroke-width="2.5"/>
  <path d="M47 69H73"
        stroke="#273A7F" stroke-width="2.5"
        stroke-linecap="round"/>

  <!-- Phone -->
  <rect x="63" y="52" width="10" height="18" rx="2.5"
        stroke="#2A85BE" stroke-width="2.5" fill="white"/>
  <circle cx="68" cy="66.5" r="0.9" fill="#2A85BE"/>

  <!-- TOP NODE: Chat Bubble (centered, contained) -->
  <rect x="55.4" y="19.8" width="9.2" height="6.6" rx="2"
        stroke="#273A7F" stroke-width="2" fill="none"/>
  <path d="M58.2 26.4L57.2 28.2L59.6 26.4"
        stroke="#273A7F" stroke-width="2"
        stroke-linecap="round" stroke-linejoin="round"/>

  <!-- LEFT NODE: Document -->
  <rect x="24.2" y="77" width="7.8" height="10"
        rx="1.6"
        stroke="#273A7F"
        stroke-width="2"/>
  <path d="M25.8 80H30.2"
        stroke="#273A7F"
        stroke-width="1.4"
        stroke-linecap="round"/>
  <path d="M25.8 82.8H29.6"
        stroke="#273A7F"
        stroke-width="1.4"
        stroke-linecap="round"/>
  <path d="M25.8 85.6H28.8"
        stroke="#273A7F"
        stroke-width="1.4"
        stroke-linecap="round"/>

  <!-- RIGHT NODE: Tools (gear) -->
  <circle cx="92" cy="82" r="4.2"
          stroke="#273A7F"
          stroke-width="2"/>
  <circle cx="92" cy="82" r="1.7"
          stroke="#273A7F"
          stroke-width="2"/>

  <!-- Gear teeth -->
  <path d="M92 75.8V77.2
           M92 86.8V88.2
           M85.8 82H87.2
           M96.8 82H98.2
           M87.6 77.6L88.6 78.6
           M95.4 85.4L96.4 86.4
           M87.6 86.4L88.6 85.4
           M95.4 78.6L96.4 77.6"
        stroke="#273A7F"
        stroke-width="2"
        stroke-linecap="round"/>
</svg>
