<svg width="120" height="120" viewBox="0 0 120 120" fill="none" xmlns="http://www.w3.org/2000/svg">

  <!-- Dotted ecosystem ring -->
  <circle cx="60" cy="60" r="44"
          stroke="#BCBEC0"
          stroke-width="2.5"
          stroke-dasharray="4 6"/>

  <!-- Central circuit board -->
  <rect x="42" y="42" width="36" height="36" rx="6"
        stroke="#273A7F" stroke-width="3" fill="white"/>

  <!-- Circuit traces -->
  <path d="M48 60H72" stroke="#2A85BE" stroke-width="2.5" stroke-linecap="round"/>
  <path d="M60 48V72" stroke="#2A85BE" stroke-width="2.5" stroke-linecap="round"/>
  <path d="M52 52L68 68" stroke="#2A85BE" stroke-width="2.5" stroke-linecap="round"/>

  <!-- Circuit nodes -->
  <circle cx="48" cy="60" r="3" fill="#0CBB19"/>
  <circle cx="72" cy="60" r="3" fill="#0CBB19"/>
  <circle cx="60" cy="48" r="3" fill="#0CBB19"/>
  <circle cx="60" cy="72" r="3" fill="#0CBB19"/>
  <circle cx="52" cy="52" r="3" fill="#0CBB19"/>
  <circle cx="68" cy="68" r="3" fill="#0CBB19"/>

  <!-- Air -->
  <circle cx="60" cy="14" r="10"
          stroke="#2A85BE" stroke-width="2.5" fill="white"/>
  <path d="M60 10V18M56 14H64"
        stroke="#273A7F" stroke-width="2" stroke-linecap="round"/>

  <!-- Hotel -->
  <circle cx="18" cy="78" r="10"
          stroke="#2A85BE" stroke-width="2.5" fill="white"/>
  <rect x="14" y="72" width="8" height="12"
        fill="#273A7F"/>

  <!-- Ticket -->
  <circle cx="102" cy="78" r="10"
          stroke="#2A85BE" stroke-width="2.5" fill="white"/>
  <path d="M98 74H106M98 78H106M98 82H106"
        stroke="#273A7F" stroke-width="2"
        stroke-linecap="round"/>

</svg>
