<svg width="120" height="120" viewBox="0 0 120 120" fill="none" xmlns="http://www.w3.org/2000/svg">

  <!-- Central circuit board -->
  <rect x="16" y="16" width="88" height="88" rx="6"
        stroke="#273A7F" stroke-width="3" fill="white"/>

  <!-- Circuit traces -->
  <path d="M30.67 60H89.33" stroke="#2A85BE" stroke-width="2.5" stroke-linecap="round"/>
  <path d="M60 30.67V89.33" stroke="#2A85BE" stroke-width="2.5" stroke-linecap="round"/>
  <path d="M40.44 40.44L79.56 79.56" stroke="#2A85BE" stroke-width="2.5" stroke-linecap="round"/>

  <!-- Circuit nodes -->
  <circle cx="30.67" cy="60" r="4.58125" fill="#0CBB19"/>
  <circle cx="89.33" cy="60" r="4.58125" fill="#0CBB19"/>
  <circle cx="60" cy="30.67" r="4.58125" fill="#0CBB19"/>
  <circle cx="60" cy="89.33" r="4.58125" fill="#0CBB19"/>
  <circle cx="40.44" cy="40.44" r="4.58125" fill="#0CBB19"/>
  <circle cx="79.56" cy="79.56" r="4.58125" fill="#0CBB19"/>

  <!-- Air -->
  <circle cx="60" cy="14" r="10"
          stroke="#2A85BE" stroke-width="2.5" fill="white"/>
  <path d="M60 10V18M56 14H64"
        stroke="#273A7F" stroke-width="2" stroke-linecap="round"/>

  <!-- Hotel -->
  <circle cx="18" cy="78" r="10"
          stroke="#2A85BE" stroke-width="2.5" fill="white"/>
  <rect x="14" y="72" width="8" height="12"
        fill="#273A7F"/>

  <!-- Ticket -->
  <circle cx="102" cy="78" r="10"
          stroke="#2A85BE" stroke-width="2.5" fill="white"/>
  <path d="M98 74H106M98 78H106M98 82H106"
        stroke="#273A7F" stroke-width="2"
        stroke-linecap="round"/>

</svg>
