<svg width="120" height="120"
     viewBox="0 0 120 120"
     xmlns="http://www.w3.org/2000/svg"
     fill="none">

  <!-- Central core -->
  <circle cx="60" cy="60" r="36"
          stroke="#273A7F" stroke-width="3" fill="white"/>

  <!-- CENTER: Plug silhouette (reference style) -->
  <!-- Prongs -->
  <rect x="51.2" y="35.6" width="5.2" height="14.4" rx="2.4" fill="#273A7F"/>
  <rect x="63.6" y="35.6" width="5.2" height="14.4" rx="2.4" fill="#273A7F"/>

  <!-- Plug head -->
  <path d="M47.6 50.4H72.4
           V63.6
           C72.4 68.8 68.2 73.0 63.0 73.0H57.0
           C51.8 73.0 47.6 68.8 47.6 63.6
           Z"
        fill="#273A7F"/>

  <!-- Receipt mark -->
  <g transform="translate(60 60) scale(1.2) translate(-92.2 -81.9)">
    <path d="M89.2 76.8H94.8C95.4 76.8 95.8 77.2 95.8 77.8V87.0
             L94.6 86.2L93.4 87.0L92.2 86.2L91.0 87.0L89.8 86.2L88.6 87.0V77.8
             C88.6 77.2 89.0 76.8 89.2 76.8Z"
          fill="white"/>
    <path d="M90.2 79.2H94.2M90.2 81.4H93.6M90.2 83.6H93.0"
          stroke="#273A7F" stroke-width="1.4" stroke-linecap="round"/>
  </g>

  <!-- Cord -->
  <rect x="57.6" y="73.0" width="4.8" height="17.2" rx="2.4" fill="#273A7F"/>

  <!-- Outer node circles -->
  <!-- <circle cx="60" cy="24" r="9.5"
          stroke="#2A85BE" stroke-width="2.5" fill="white"/>
  <circle cx="28" cy="82" r="9.5"
          stroke="#2A85BE" stroke-width="2.5" fill="white"/>
  <circle cx="92" cy="82" r="9.5"
          stroke="#2A85BE" stroke-width="2.5" fill="white"/> -->

  <!-- TOP NODE: Taxi -->
  <!-- <rect x="55.3" y="21.0" width="9.4" height="7.6" rx="2"
        fill="#273A7F"/>
  <rect x="56.6" y="22.2" width="6.8" height="3.1" rx="1"
        fill="white" opacity="0.95"/>
  <rect x="58.2" y="19.6" width="3.6" height="1.4" rx="0.6"
        fill="#273A7F"/>
  <circle cx="56.4" cy="26.8" r="0.8" fill="white" opacity="0.95"/>
  <circle cx="63.6" cy="26.8" r="0.8" fill="white" opacity="0.95"/> -->

  <!-- LEFT NODE: Hotel -->
  <!-- <rect x="23.2" y="76.6" width="9.6" height="10.6" rx="1.8"
        fill="#273A7F"/>
  <rect x="25.2" y="78.6" width="1.4" height="1.4" rx="0.3" fill="white"/>
  <rect x="27.6" y="78.6" width="1.4" height="1.4" rx="0.3" fill="white"/>
  <rect x="30.0" y="78.6" width="1.4" height="1.4" rx="0.3" fill="white"/>
  <rect x="25.2" y="81.0" width="1.4" height="1.4" rx="0.3" fill="white"/>
  <rect x="27.6" y="81.0" width="1.4" height="1.4" rx="0.3" fill="white"/>
  <rect x="30.0" y="81.0" width="1.4" height="1.4" rx="0.3" fill="white"/>
  <rect x="27.6" y="83.4" width="2.0" height="3.8" rx="0.6" fill="white"/> -->

  <!-- RIGHT NODE: Receipt -->
  <!-- <path d="M89.2 76.8H94.8C95.4 76.8 95.8 77.2 95.8 77.8V87.0
           L94.6 86.2L93.4 87.0L92.2 86.2L91.0 87.0L89.8 86.2L88.6 87.0V77.8
           C88.6 77.2 89.0 76.8 89.2 76.8Z"
        fill="#273A7F"/>
  <path d="M90.2 79.2H94.2M90.2 81.4H93.6M90.2 83.6H93.0"
        stroke="white" stroke-width="1.4" stroke-linecap="round"/> -->

</svg>
